<svg width="82" height="92" viewBox="0 0 82 92" fill="none" xmlns="http://www.w3.org/2000/svg">
<path d="M37.5 0.883443L0.999986 22.3834C0.320932 22.7834 0.0503893 23.5501 0 23.8835C0.333329 37.3835 0.5 64.8835 0.499986 65.8835C0.499968 67.1484 0.55485 69.0443 1.99999 69.8835C12.3333 75.8835 33.7 88.2835 36.5 89.8835C39.3 91.4835 42 91.2168 43 90.8835C53.3333 84.8835 74.5 72.5835 76.5 71.3835C78.5 70.1835 80.3333 67.8835 81 66.8835C80.8333 55.2168 80.6 30.9835 81 27.3835C81.4 23.7835 79.8333 21.8835 79 21.3835C68.8333 15.2168 47.7 2.48344 44.5 0.883443C41.3 -0.716557 38.5 0.216776 37.5 0.883443Z" fill="url(#paint0_linear_175_7)"/>
<path d="M24 23.8834H51.5V58.8834L26.1594 58.8108V62L27.6594 63.3834H55.5V30.8834H60V65.8834C60 66.6834 58.6667 67.5501 58 67.8834H27C23.4 67.8834 21.1667 64.8834 20.5 63.3834V27.3834C20.5 25.3834 22.8333 24.2168 24 23.8834Z" fill="white"/>
<defs>
<linearGradient id="paint0_linear_175_7" x1="40.5321" y1="0" x2="40.5321" y2="91.1363" gradientUnits="userSpaceOnUse">
<stop stop-color="#5066F0"/>
<stop offset="1" stop-color="#7C8CF2"/>
</linearGradient>
</defs>
</svg>
